<svg version="1.1" xmlns="http://www.w3.org/2000/svg" xmlns:xlink="http://www.w3.org/1999/xlink" width="66.34278" height="37.88773" viewBox="0,0,66.34278,37.88773"><defs><linearGradient x1="206.8286" y1="161.05613" x2="206.8286" y2="198.94389" gradientUnits="userSpaceOnUse" id="color-1"><stop offset="0" stop-color="#ffffff"/><stop offset="1" stop-color="#cccccc"/></linearGradient><radialGradient cx="246.82236" cy="179.9616" r="39.07662" gradientUnits="userSpaceOnUse" id="color-2"><stop offset="0" stop-color="#ffffff"/><stop offset="1" stop-color="#cccccc"/></radialGradient></defs><g transform="translate(-206.82861,-161.05613)"><g data-paper-data="{&quot;isPaintingLayer&quot;:true}" fill-rule="nonzero" stroke="none" stroke-linecap="round" stroke-linejoin="miter" stroke-miterlimit="10" stroke-dasharray="" stroke-dashoffset="0" style="mix-blend-mode: normal"><path d="M240.94986,162.24437c5.82495,-1.32247 12.48765,-1.9426 18.24928,0.30942c2.02453,0.89923 -0.67636,5.44591 0.71287,7.36435c0.76589,1.05698 2.70147,-1.6913 3.67837,-0.6498c3.90875,3.59925 9.5558,7.56239 9.58089,13.24348c0.02622,5.83828 -4.51788,11.83311 -9.44346,14.3277c-6.89709,3.486 -15.23643,1.70367 -22.83502,1.20551c-7.10067,-0.46539 -13.99889,-2.73534 -21.0152,-4.02255c-3.47991,-0.49633 -7.41376,0.51302 -10.49334,-1.33051c-1.87455,-1.12198 -2.94553,-4.12036 -2.42373,-6.46705c0.76077,-2.72726 5.48052,-2.6041 6.33024,-5.35306c0.86856,-2.81392 -2.98888,-6.15327 -1.939,-9.15901c0.79499,-2.04036 3.8985,-1.88135 6.1021,-2.2279c3.7765,-0.58852 7.79246,1.06195 11.46287,0c4.42029,-1.29649 7.54835,-6.22255 12.03314,-7.24057z" fill="url(#color-1)" stroke-width="1.28185"/><path d="M242.00638,165.31681c2.5181,-0.81279 5.29661,-0.89633 7.19079,0.58016c1.59857,1.05823 0.55655,3.82849 1.28314,5.56953c0.55977,1.34426 1.36009,3.04878 2.6197,4.03215c1.17408,0.7078 2.66998,0.52735 4.14343,0.66717c2.34865,0.20598 5.04802,-1.34305 7.08388,-0.20307c3.35806,1.79737 8.16442,4.38429 7.88585,8.35434c-0.3892,5.54051 -6.5327,8.56665 -9.59666,13.05361c-0.65331,1.15279 1.79532,0.29125 0.74368,0.37825c-4.20328,0.34637 -7.76824,1.15395 -11.7304,0.98512c-4.87749,-0.32722 -9.55819,-0.96481 -14.64898,-2.46567c-3.66709,-1.11971 -6.45571,-4.7208 -10.23826,-5.56957c-3.82639,-0.85918 -8.22056,1.58907 -11.73523,0.20307c-1.62743,-0.64744 -3.13295,-3.56104 -2.19198,-5.1344c1.30716,-2.14428 5.71042,-0.31214 7.32446,-2.43669c1.02811,-1.41096 -1.12965,-3.3719 -0.96235,-5.13441c-0.21915,-2.06772 -0.95644,-5.22668 0.80197,-6.0917c3.25593,-1.60475 7.30523,0.99556 10.74614,0c4.14397,-1.21542 7.16624,-5.45118 11.28082,-6.78789z" fill="url(#color-2)" stroke-width="1.20171"/></g></g></svg>