<svg version="1.1" xmlns="http://www.w3.org/2000/svg" xmlns:xlink="http://www.w3.org/1999/xlink" width="56.89875" height="57.94329" viewBox="0,0,56.89875,57.94329"><g transform="translate(-211.55062,-151.02835)"><g data-paper-data="{&quot;isPaintingLayer&quot;:true}" fill-rule="nonzero" stroke="none" stroke-width="1.20944" stroke-linecap="butt" stroke-linejoin="miter" stroke-miterlimit="10" stroke-dasharray="" stroke-dashoffset="0" style="mix-blend-mode: normal"><g><path d="M234.8779,163.58127c-0.05545,-0.23562 0.34198,-0.60601 0.85853,-0.91981c0.2919,0.48992 0.62033,0.94666 0.97998,1.36848c-0.78595,0.12409 -1.701,0.13426 -1.83852,-0.44867z" fill="#ffffff"/><path d="M220.18705,208.7582c-0.97676,1.28498 -9.44407,-3.40884 -8.44389,-9.3278c0.61146,-3.60859 6.58967,-6.09423 5.70843,-10.22576c3.63697,1.27931 7.31387,7.02331 5.32585,10.25232c-0.84657,1.36806 -2.9238,1.22998 -3.43452,2.94985c-0.61105,2.01894 0.60138,4.35215 0.84414,6.3514z" fill="#ff1816"/><path d="M218.11967,207.27115c-11.13769,-8.62002 2.81003,-10.46657 0.9114,-14.77217c6.63746,4.88325 -2.88072,7.12822 -2.67494,10.90937c0.07211,1.30738 1.76354,3.86279 1.76354,3.86279z" fill="#ffea00"/><path d="M268.44936,199.57336c-4.42908,-1.33029 -13.19411,2.22499 -16.6766,-0.91737c-4.42378,-3.98986 3.66567,-11.6643 -0.58259,-16.88524c8.03723,0.67661 6.20379,7.45506 7.96989,9.28361c2.03815,2.11629 8.70519,1.85927 9.28931,8.519z" fill="#ff1816"/><path d="M253.63529,184.19737c4.03041,1.50949 2.21937,7.13187 4.28604,8.95166c2.04218,1.79274 5.23708,-0.14581 8.6673,3.85593c-3.96939,-1.70193 -13.0471,3.56771 -14.10342,-2.99079c-0.45197,-2.79098 2.76943,-6.17386 1.15009,-9.8168z" fill="#ffea00"/><path d="M244.28833,192.05015c2.02974,-4.67826 -0.02517,-9.80232 -5.64168,-10.07299c-3.02986,-0.14697 -6.19796,0.0135 -9.083,-1.07501c-3.52855,-1.33018 -5.64468,-7.10946 -5.34347,-10.59179c0.11541,-1.33077 0.56268,-3.25303 1.12326,-4.48415c-1.679,0.51299 -3.38254,2.38644 -3.75185,4.0535c-1.08682,4.8901 8.95824,9.95381 0.42973,19.20051c-0.87656,-0.33232 -0.30892,-1.30115 -0.39333,-1.94594c-0.96441,-7.74339 -8.5172,-7.98229 -10.07737,-14.17258c0.37397,-0.1365 0.74383,-0.29677 1.10771,-0.48142c4.18409,-2.12315 6.23294,-6.78636 5.22236,-11.16126c3.49104,-1.00227 7.56566,-1.26565 10.08782,-4.42647c1.3973,-1.7536 2.47006,-3.6403 2.61156,-5.82473c0.17566,-0.00594 0.35838,-0.0149 0.54888,-0.02756c0.06432,-0.00427 0.12817,-0.00824 0.19155,-0.01191c0.11082,0.11497 0.21682,0.23064 0.31817,0.34698c-0.14611,1.78088 0.18322,3.62308 1.0511,5.33341c0.23869,0.47038 0.50947,0.91376 0.80834,1.32885c-0.35234,2.98722 -1.70894,6.01175 -2.15802,8.66122c-1.35753,7.95146 12.2572,5.41132 15.90288,13.27207c1.67876,3.62367 0.88324,8.6684 -2.95463,12.07926z" fill="#ff1816"/><path d="M246.68822,186.57516c0.47825,-8.09401 -10.08533,-6.91497 -14.60672,-7.59074c-8.71607,-1.30326 -5.68703,-12.795 -4.74909,-15.24973c-3.18341,0.86001 -7.39979,2.11657 -8.07237,5.71962c-1.25385,6.72309 8.0099,9.01772 3.22829,16.36862c-0.17994,-1.42906 0.01224,-2.85979 -0.53455,-4.22066c-1.79212,-4.44786 -6.57553,-4.70873 -8.16928,-9.78817c2.7788,-1.89801 4.35215,-5.02905 4.35089,-8.2633c1.88491,-0.59845 4.70444,-1.29864 5.81136,-1.68259c5.8534,-2.02355 7.15043,-5.93808 7.62303,-9.61458c0.01232,0.02403 0.02444,0.04807 0.03637,0.07211c0.01454,1.07994 0.20491,2.16969 0.58483,3.22726c-0.47081,5.65824 -7.38216,11.61592 -0.53379,17.82712c4.8845,4.43283 14.81082,1.86425 15.09879,10.6665c0.02968,0.81229 0.13142,1.73167 -0.06774,2.52854z" fill="#ffea00"/><path d="M226.54372,183.52498c2.49551,-1.0316 5.38774,-0.47166 7.50412,0.97561c3.25254,2.22974 2.33523,6.51845 2.35497,9.84745c0.014,3.08521 2.04112,5.71698 4.16798,7.7462c-3.35703,1.93683 -9.97927,2.55485 -11.43209,-1.00853c-1.71306,-4.20441 4.97865,-12.61 -2.59498,-17.56073z" fill="#ff1816"/><path d="M230.43368,185.24143c7.65851,1.753 0.63354,10.325 5.63312,14.92584l1.93724,1.78107c-1.75921,0.14675 -4.78667,-0.70398 -5.90713,-2.0301c-3.12401,-3.70813 3.43824,-10.70124 -1.66322,-14.6768z" fill="#ffea00"/></g></g></g></svg>