<svg class="c011012" width="285" height="178" viewBox="0 0 285 178" fill="none" xmlns="http://www.w3.org/2000/svg"><path d="M0.432829 122.312C1.93286 116.864 6.51189 114.022 6.66978 108.417C6.82768 102.811 -1.0672 99.4954 1.61706 91.4427C3.74868 84.9689 12.1962 85.0478 14.091 79.1266C15.9857 73.2055 11.2488 69.0212 14.4857 63.4948C17.6437 57.9684 23.0911 57.3368 27.4333 52.1262C31.7755 46.9155 33.4334 35.3101 33.4334 35.3101H74.9605C74.9605 35.3101 76.3026 46.9945 80.1711 52.2841C84.0396 57.5736 89.0923 57.021 91.7766 62.6263C94.5398 68.2317 89.8029 73.6792 91.224 79.6793C92.645 85.6794 99.0399 85.5215 101.329 92.7058C103.619 99.8112 96.5925 103.522 96.3556 109.127C96.1188 114.733 99.9873 112.838 103.382 120.97C108.908 134.233 93.3556 144.102 83.0133 140.707C68.013 135.733 63.6708 141.496 54.8286 141.812C39.5125 142.365 31.8545 133.68 23.8806 138.18C12.0383 144.891 -2.72512 133.522 0.432829 122.312Z" fill="#BF8F68"></path><path d="M109.462 79.0476L110.409 82.6003C110.409 82.6003 113.962 83.1529 117.83 82.4424C120.83 81.8897 123.593 80.2318 124.936 79.3634C125.804 78.8107 126.594 77.9423 126.199 77.3107C128.173 76.2054 127.541 74.7054 126.83 74.8633L118.936 76.5212C118.936 76.5212 121.699 74.6265 122.093 74.2317C122.567 73.758 122.567 72.6527 121.383 73.0475C120.357 73.4422 118.462 74.2317 117.12 74.7054C111.988 76.6791 109.462 79.0476 109.462 79.0476Z" fill="#F9DDBF"></path><path d="M55.0647 80.8635L71.3281 72.8896C71.3281 72.8896 81.4336 91.8374 88.5389 93.6532C94.9338 95.3901 94.3022 96.4953 109.539 78.8898L112.145 82.6003C112.145 82.6003 100.065 105.18 89.7232 105.732C76.3019 106.522 55.0647 80.8635 55.0647 80.8635Z" fill="url(#pdlm_paint0_radial)"></path><path d="M85.2358 164.127C83.0016 150.607 77.7351 141.053 74.1444 135.735H74.2242L73.9848 135.285C70.2345 127.533 69.2769 118.43 71.3516 109.867L74.5434 96.7076C75.4211 94.0937 75.8999 91.2095 75.8999 88.2351C75.8999 75.0756 66.3245 64.4399 54.5948 64.4399C42.865 64.4399 33.2896 75.0756 33.2896 88.2351C33.2896 91.2095 33.7684 94.0937 34.7259 96.7076L37.9177 109.867C39.9924 118.43 39.0348 127.533 35.2845 135.285L35.0451 135.735H35.1249C31.4544 141.053 26.2677 150.607 24.0335 164.127C23.2355 169.084 22.3578 173.411 21.4801 178.999C21.4003 178.909 87.6297 178.819 87.7095 178.999C86.8317 173.501 86.0338 168.814 85.2358 164.127Z" fill="url(#pdlm_paint1_radial)"></path><path d="M52.8548 58.2051H55.3812C66.1182 58.2051 74.8815 49.4418 74.8815 38.7047V35.3099C74.8815 24.5729 66.1182 15.8096 55.3812 15.8096H52.8548C42.1178 15.8096 33.3544 24.5729 33.3544 35.3099V38.7047C33.4334 49.5207 42.1178 58.2051 52.8548 58.2051Z" fill="#BF8F68"></path><path d="M29.1291 146.321L25.2739 147.001C25.2739 147.001 24.426 150.633 24.799 154.554C25.1514 157.595 26.6832 160.655 27.5089 162.107C27.971 163.06 28.906 163.916 29.6022 163.593C30.6719 165.699 32.2255 165.166 32.1737 164.456L31.0331 156.285C31.0331 156.285 32.861 159.219 33.2246 159.717C33.6764 160.23 34.8402 160.335 34.5132 159.14C34.2433 158.131 33.5269 156.083 33.0701 154.604C31.3572 149.058 29.1291 146.321 29.1291 146.321Z" fill="#F9DDBF"></path><path d="M52.0651 81.6535L41.7228 68.8638C41.7228 68.8638 29.091 76.9165 23.0909 104.785C18.7487 124.996 25.2225 141.26 25.6173 147.181L29.9594 147.023C29.9594 147.023 27.6699 126.812 34.5385 111.733C37.9333 104.075 52.0651 81.6535 52.0651 81.6535Z" fill="#6ECFC3"></path><path d="M44.0921 67.3631C44.0921 67.3631 49.1448 64.7578 49.3027 60.0998C49.3817 57.9682 49.3027 53.1523 49.3027 53.1523H59.645C59.645 53.1523 59.5661 57.9682 59.645 60.0998C59.8029 64.7578 64.8557 67.3631 64.8557 67.3631C64.8557 67.3631 60.9872 71.7053 54.4344 71.7053C47.8817 71.7053 44.0921 67.3631 44.0921 67.3631Z" fill="url(#pdlm_paint2_radial)"></path><path d="M58.1442 57.8888H58.3811C65.7233 57.8888 71.7234 51.8887 71.7234 44.5465V39.0201C71.7234 31.6778 65.7233 25.6777 58.3811 25.6777H58.1442C50.802 25.6777 44.8019 31.6778 44.8019 39.0201V44.5465C44.8019 51.9677 50.723 57.8888 58.1442 57.8888Z" fill="#F9DDBF"></path><path d="M44.0124 47.5477H47.6441V40.6792H44.0124C42.1176 40.6792 40.5387 42.1792 40.5387 44.1529C40.6176 46.0477 42.1176 47.5477 44.0124 47.5477Z" fill="#F9DDBF"></path><path d="M60.4346 52.5208H69.4348V36.2573H60.4346V52.5208Z" fill="url(#pdlm_paint3_radial)"></path><path d="M65.8804 44.3889C66.5344 44.3889 67.0646 43.3992 67.0646 42.1783C67.0646 40.9575 66.5344 39.9678 65.8804 39.9678C65.2263 39.9678 64.6961 40.9575 64.6961 42.1783C64.6961 43.3992 65.2263 44.3889 65.8804 44.3889Z" fill="#33312D"></path><path d="M54.4347 44.3889C55.0887 44.3889 55.6189 43.3992 55.6189 42.1783C55.6189 40.9575 55.0887 39.9678 54.4347 39.9678C53.7806 39.9678 53.2504 40.9575 53.2504 42.1783C53.2504 43.3992 53.7806 44.3889 54.4347 44.3889Z" fill="#33312D"></path><path d="M60.4337 49.2047C60.4337 49.1258 60.6705 48.2573 61.1442 47.8626C61.6968 47.4678 62.7232 46.7573 62.7232 45.4941C62.7232 44.152 60.8284 43.2836 60.5916 41.7046L60.4337 40.4414C59.881 41.8625 59.7231 43.6783 59.881 45.8099C60.0389 46.8363 60.1968 48.4152 60.4337 49.2047Z" fill="#F9DDBF"></path><path d="M46.7758 24.8882C43.1441 33.4936 41.0915 39.7306 41.1704 40.2043C42.5915 40.9148 44.3284 40.7569 45.9074 40.7569C48.5127 40.7569 50.7232 39.8885 52.539 38.1516C54.3549 36.4147 55.3812 33.1778 55.5391 30.6514H63.9077C64.0656 33.1778 65.013 36.4147 66.9077 38.1516C68.7235 39.8885 71.0131 40.7569 73.5394 40.7569C75.2763 40.7569 68.4078 24.8882 68.4078 24.8882H46.7758Z" fill="#BF8F68"></path><path d="M66.6711 19.4412C66.6711 19.4412 63.6711 17.0727 59.6447 16.2832L59.7236 30.6519H66.829L66.6711 19.4412Z" fill="url(#pdlm_paint4_linear)"></path><path d="M59.7232 30.7314H63.9074C63.9074 29.6261 63.039 28.6787 61.8548 28.6787H61.6969C60.5916 28.6787 59.7232 29.5471 59.7232 30.7314Z" fill="#9B643D"></path><path d="M55.5401 30.7314H59.7244C59.7244 29.6261 58.856 28.6787 57.6718 28.6787H57.5139C56.4086 28.6787 55.5401 29.5471 55.5401 30.7314Z" fill="#9B643D"></path><path d="M62.3289 51.2578C62.25 51.0999 62.0921 51.021 61.9342 50.942H61.7763L56.092 49.7578H55.9341C55.7762 49.7578 55.6183 49.8368 55.5393 49.9157C55.3815 50.0736 55.3815 50.1526 55.3815 50.3894C55.3815 51.2578 55.6972 51.9684 56.2499 52.6789C56.8025 53.3895 57.5131 53.7842 58.3815 53.9421C59.2499 54.1 60.0394 54.0211 60.8289 53.5474C61.6184 53.1526 62.1711 52.521 62.4868 51.7315C62.3289 51.6526 62.4079 51.4947 62.3289 51.2578Z" fill="#605D5A"></path><path d="M62.3289 51.7315C62.4079 51.5736 62.4079 51.4157 62.3289 51.2578C62.25 51.0999 62.0921 51.021 61.9342 50.942H61.7763L56.092 49.7578H55.9341C55.7762 49.7578 55.6183 49.8368 55.5393 49.9157C55.3815 50.0736 55.3815 50.1526 55.3815 50.3894C56.4078 50.7841 57.592 51.021 58.8552 51.3368C60.1184 51.5736 61.3026 51.7315 62.3289 51.7315Z" fill="#F8F8F8"></path><path d="M157.62 82.5227V84.5754C157.62 109.997 174.594 131.392 197.805 138.182C199.068 138.576 200.331 138.892 201.594 139.129C202.226 139.287 202.857 139.366 203.489 139.524C204.199 139.682 204.91 139.761 205.621 139.84C206.173 139.918 206.647 139.997 207.2 139.997C209.252 140.234 211.305 140.313 213.436 140.313H225.121C238.384 140.313 250.621 135.655 260.253 127.918C264.358 124.602 267.99 120.655 271.069 116.313C277.306 107.313 281.017 96.3388 281.017 84.4964V82.4438C281.017 70.1277 276.99 58.6802 270.28 49.5221C260.095 35.6271 243.674 26.627 225.2 26.627H213.515C182.567 26.7059 157.62 51.7327 157.62 82.5227Z" fill="url(#pdlm_paint5_radial)"></path><path d="M205.304 60.0239H203.882C202.54 60.0239 201.435 60.4976 200.488 61.445C199.54 62.3924 199.067 63.5766 199.067 64.8398C199.067 66.1819 199.54 67.3662 200.488 68.3135C201.435 69.2609 202.54 69.7346 203.882 69.7346H205.225V60.0239H205.304Z" fill="#BE906B"></path><path d="M171.514 156.814C171.514 156.814 170.093 165.499 170.645 169.209C171.277 174.025 171.751 176.315 174.04 176.394C174.119 176.473 174.435 177.104 174.83 177.578C175.382 178.209 176.567 179.078 176.567 176.946C176.567 174.262 176.567 169.051 176.567 169.051C176.567 169.051 177.909 170.867 178.54 171.815C179.172 172.762 181.304 173.946 180.04 170.078C178.382 165.025 175.382 156.262 175.382 156.262L171.514 156.814Z" fill="#BE906B"></path><path d="M173.487 124.445C176.408 112.602 188.724 82.9175 212.014 82.9175C219.988 102.339 203.014 118.681 196.067 126.26C189.119 133.839 183.83 150.103 179.961 161.708L170.803 161.156C170.803 161.156 168.908 143.076 173.487 124.445Z" fill="url(#pdlm_paint6_radial)"></path><path d="M253.541 124.368C249.514 91.288 231.04 82.5246 225.277 82.7615H212.251C206.487 82.5246 188.013 91.288 183.987 124.368C180.276 154.368 185.329 179 185.329 179L218.803 178.921L252.278 179C252.199 179 257.251 154.368 253.541 124.368Z" fill="url(#pdlm_paint7_radial)"></path><path d="M266.172 156.814C266.172 156.814 267.594 165.499 267.041 169.209C266.409 174.025 265.936 176.315 263.646 176.394C263.567 176.473 263.251 177.104 262.857 177.578C262.304 178.209 261.12 179.078 261.12 176.946C261.12 174.262 261.12 169.051 261.12 169.051C261.12 169.051 259.778 170.867 259.146 171.815C258.514 172.762 256.383 173.946 257.646 170.078C259.304 165.025 262.304 156.262 262.304 156.262L266.172 156.814Z" fill="#BE906B"></path><path d="M264.122 124.445C261.201 112.602 248.885 82.9175 225.595 82.9175C217.621 102.339 234.595 118.681 241.542 126.26C248.49 133.839 253.779 150.103 257.648 161.708L266.806 161.156C266.885 161.156 268.78 143.076 264.122 124.445Z" fill="#FFD360"></path><path d="M224.33 78.4973H214.62C205.225 78.4973 197.567 70.8393 197.567 61.4444V56.9443C197.567 46.5231 206.014 37.9966 216.515 37.9966H222.594C233.015 37.9966 241.541 46.4441 241.541 56.9443V61.4444C241.383 70.8393 233.725 78.4973 224.33 78.4973Z" fill="#DFBC97"></path><path d="M227.805 80.3916V71.3125H210.199V78.5758C210.12 80.9443 208.384 83.2338 206.094 83.6285C205.462 83.7864 204.752 83.9443 204.12 84.1812C204.594 85.6812 208.226 90.576 218.805 90.576C229.384 90.576 233.41 85.8391 233.726 84.2601C233.016 84.0233 228.437 85.3654 227.805 80.3916Z" fill="url(#pdlm_paint8_radial)"></path><path d="M231.041 69.1029C232.067 68.2344 233.252 67.9976 234.436 68.2344C235.62 68.4713 236.568 69.2608 237.199 70.445C237.831 71.6292 238.068 72.9714 237.752 74.3925C237.515 75.8135 236.804 76.9978 235.778 77.8662C234.752 78.7346 233.568 78.9715 232.383 78.7346C231.199 78.4978 230.252 77.7872 229.541 76.5241C228.91 75.3398 228.673 73.9977 228.988 72.5766C229.383 71.0766 230.015 69.8924 231.041 69.1029Z" fill="#DFBC97"></path><path d="M226.619 78.972C227.093 77.8667 227.804 77.0772 228.83 76.5246C229.856 75.9719 230.962 75.893 231.988 76.2877C233.014 76.6825 233.725 77.393 234.12 78.4194C234.514 79.4457 234.435 80.551 234.041 81.6563C233.567 82.7615 232.856 83.551 231.751 84.1037C230.725 84.5774 229.698 84.6563 228.672 84.2616C227.646 83.8668 226.935 83.1563 226.541 82.1299C226.146 81.1826 226.146 80.0773 226.619 78.972Z" fill="#DFBC97"></path><path d="M224.882 86.1556C225.04 84.8924 225.593 83.8661 226.382 83.0766C227.172 82.2871 228.119 81.8924 229.067 81.9713C230.014 81.9713 230.804 82.445 231.356 83.3135C231.909 84.1819 232.067 85.2082 231.909 86.4714C231.672 87.6557 231.198 88.603 230.33 89.4715C229.461 90.261 228.593 90.6557 227.646 90.6557C226.619 90.5768 225.909 90.1031 225.356 89.2346C224.803 88.4451 224.646 87.4188 224.882 86.1556Z" fill="#DFBC97"></path><path d="M225.988 88.7602C226.856 88.5233 227.646 88.6812 228.356 89.1549C229.067 89.7076 229.541 90.4971 229.778 91.6023C229.935 92.6287 229.856 93.655 229.383 94.6024C228.909 95.5498 228.277 96.1024 227.409 96.4182C226.541 96.6551 225.751 96.5761 225.041 96.0235C224.33 95.4708 223.856 94.6813 223.619 93.5761C223.462 92.5497 223.541 91.5234 224.014 90.576C224.488 89.7076 225.12 89.076 225.988 88.7602Z" fill="#DFBC97"></path><path d="M226.699 95.4727C228.593 95.5516 229.699 96.7359 230.093 98.8675C230.488 100.999 229.935 102.815 228.435 104.236C227.725 104.947 227.409 105.657 227.488 106.526C227.567 106.92 227.646 107.315 227.804 107.631L226.62 106.999C225.909 106.447 225.514 105.736 225.514 104.789C225.514 104.078 225.278 103.525 224.804 103.131C224.093 102.578 223.62 102.025 223.383 101.473C222.83 100.368 222.83 99.1043 223.225 97.7622C223.935 96.1832 224.962 95.3937 226.699 95.4727Z" fill="#DFBC97"></path><path d="M204.515 59.8657H203.094C201.752 59.8657 200.647 60.3394 199.699 61.3658C198.752 62.3131 198.278 63.4974 198.278 64.8395C198.278 66.1816 198.752 67.3659 199.699 68.3922C200.647 69.3396 201.752 69.8133 203.094 69.8133H204.436V59.8657H204.515Z" fill="url(#pdlm_paint9_linear)"></path><path d="M220.225 78.734H213.119C206.645 78.734 201.435 73.5234 201.435 67.0496V58.681C201.435 52.2072 206.645 46.9966 213.119 46.9966H220.225C226.698 46.9966 231.909 52.2072 231.909 58.681V67.0496C231.83 73.5234 226.619 78.734 220.225 78.734Z" fill="#BE906B"></path><path d="M236.251 55.4452C236.251 55.4452 231.83 55.682 228.672 55.4452C225.988 55.2083 221.646 54.2609 219.988 51.1819C218.251 48.1029 217.856 43.2081 217.856 43.2081L223.383 42.7344C229.067 42.2607 234.12 45.5766 235.146 50.4714L236.251 55.4452Z" fill="#DFBC97"></path><path d="M236.015 59.9448C236.015 59.9448 233.173 59.9448 231.199 59.4711C229.541 59.0763 226.857 58.2079 226.146 55.05C225.357 51.8131 225.673 46.9182 225.673 46.9182L229.225 46.7603C232.857 46.6024 235.699 50.2341 235.857 55.2078L236.015 59.9448Z" fill="#DFBC97"></path><path d="M204.12 59.8657H213.831L213.752 71.708L204.12 71.6291V59.8657Z" fill="url(#pdlm_paint10_radial)"></path><path d="M208.225 64.2869C208.923 64.2869 209.489 63.2971 209.489 62.0763C209.489 60.8554 208.923 59.8657 208.225 59.8657C207.528 59.8657 206.962 60.8554 206.962 62.0763C206.962 63.2971 207.528 64.2869 208.225 64.2869Z" fill="#33312D"></path><path d="M220.383 64.2869C221.081 64.2869 221.646 63.2971 221.646 62.0763C221.646 60.8554 221.081 59.8657 220.383 59.8657C219.686 59.8657 219.12 60.8554 219.12 62.0763C219.12 63.2971 219.686 64.2869 220.383 64.2869Z" fill="#33312D"></path><path d="M230.487 59.8657H231.908C233.251 59.8657 234.356 60.3394 235.303 61.3658C236.251 62.3131 236.724 63.4974 236.724 64.8395C236.724 66.1816 236.251 67.3659 235.303 68.3922C234.356 69.3396 233.251 69.8133 231.908 69.8133H230.566V59.8657H230.487Z" fill="#BE906B"></path><g opacity="0.5"><path opacity="0.5" d="M212.331 71.7071C213.357 71.6281 214.305 71.6281 215.173 71.4702C215.568 71.3913 215.963 71.3123 216.436 71.1544C216.831 70.9965 217.226 70.8386 217.779 70.6018H217.857C218.015 70.5228 218.252 70.6018 218.331 70.7597C218.331 70.8386 218.331 70.9176 218.331 70.9965C218.173 71.5492 217.779 72.1018 217.305 72.4965C216.831 72.8913 216.2 73.1281 215.568 73.2071C214.936 73.286 214.305 73.286 213.752 73.1281C213.2 72.9702 212.647 72.7334 212.173 72.3386C212.015 72.1807 212.015 72.0229 212.173 71.865C212.094 71.786 212.173 71.786 212.331 71.7071Z" fill="#9A6541"></path></g><path d="M216.119 65.2346C216.119 66.5768 215.014 70.3663 213.83 70.6032C213.83 70.6032 213.751 70.2084 213.672 69.6558C213.514 68.7873 213.04 67.9978 212.172 67.6031C211.462 67.2084 210.593 66.4978 210.593 65.2346C210.593 63.8925 211.619 63.182 212.33 62.7872C213.041 62.4714 213.514 61.6819 213.593 60.8925C213.672 60.103 213.751 59.3135 213.751 59.3135C214.619 59.7872 216.119 64.2083 216.119 65.2346Z" fill="#BE906B"></path><path d="M196.067 41.3122C190.54 44.0754 191.488 56.8651 189.83 57.102C188.172 57.4178 186.909 56.3125 186.909 56.3125C186.909 56.3125 187.225 59.8652 191.646 60.8915C191.646 60.8915 187.303 60.4178 186.435 59.3125C186.435 59.3125 186.435 64.2863 192.593 64.2863C204.83 64.2863 202.383 57.4178 204.83 52.6809C207.278 47.9439 214.067 46.9965 214.067 46.9965C214.067 46.9965 205.462 36.5753 196.067 41.3122Z" fill="#DFBC97"></path><path d="M139.857 0.0999803C161.884 -1.3211 180.674 12.5739 181.858 31.1269C182.253 37.3638 180.595 43.3639 177.437 48.5745C171.91 57.6537 161.726 64.5222 149.41 66.6538C147.752 66.9696 146.015 67.2065 144.199 67.2854C139.699 67.6012 135.278 67.2065 131.173 66.338C129.752 67.2854 128.094 68.2328 126.199 69.0223C125.173 69.496 124.067 69.8907 122.962 70.2065C115.383 72.575 115.225 70.6802 117.357 66.8907C118.146 65.5485 119.172 64.0485 120.278 62.3116C110.014 56.8642 102.909 47.3903 102.198 36.2585C100.935 17.7056 117.83 1.52106 139.857 0.0999803Z" fill="#E1DFDD"></path><path d="M144.278 43.0484C144.989 43.5221 145.857 43.8379 146.883 43.8379C149.173 43.8379 151.384 42.8116 153.515 40.6799C157.068 37.1272 158.884 33.0219 158.884 28.4429C158.884 24.2586 157.463 20.8638 154.62 18.2585C151.778 15.6532 148.068 14.311 143.568 14.311C137.567 14.311 132.436 16.4427 128.015 20.7059C123.672 24.9691 121.462 30.0218 121.462 35.7851C121.462 40.522 123.041 44.5484 126.278 47.7064C129.515 50.8643 133.541 52.4433 138.436 52.4433C143.094 52.4433 147.515 50.9433 151.62 47.8643C152.726 47.0748 153.278 46.2853 153.278 45.6537C153.278 44.9432 152.884 44.6274 152.094 44.6274C151.541 44.6274 150.91 44.9432 150.041 45.4958C147.831 46.9958 146.015 48.1011 144.515 48.5748C143.015 49.1275 141.199 49.3643 138.91 49.3643C135.041 49.3643 131.883 48.1011 129.357 45.4958C126.83 42.8905 125.567 39.7325 125.567 35.8641C125.567 30.9692 127.304 26.627 130.778 22.9165C134.252 19.2059 138.357 17.39 143.094 17.39C146.41 17.39 149.252 18.4953 151.384 20.6269C153.594 22.7586 154.699 25.5218 154.699 28.7587C154.699 32.3114 153.752 35.3904 151.936 37.9167C150.594 39.8115 149.173 40.7589 147.673 40.7589C146.883 40.7589 146.489 40.4431 146.489 39.7325C146.489 39.4957 146.568 39.101 146.647 38.6273L150.12 26.0744L150.436 24.9691C150.515 24.8112 150.515 24.5744 150.515 24.3375C150.515 23.8638 150.199 23.548 149.568 23.548C149.331 23.548 148.857 23.7059 148.226 23.9428C147.831 24.1007 147.515 24.2586 147.199 24.2586C146.883 24.2586 146.726 24.2586 146.568 24.1796L145.383 23.8638C144.594 23.627 143.725 23.548 142.699 23.548C139.225 23.548 136.067 24.8902 133.462 27.6534C130.778 30.4166 129.436 33.5745 129.436 37.1272C129.436 39.1799 130.067 40.8378 131.252 42.101C132.436 43.3642 134.015 43.9958 135.91 43.9958C139.068 43.9958 141.515 42.8905 143.094 40.601C143.015 40.9957 142.936 41.2326 142.936 41.3905C143.252 41.8642 143.568 42.4958 144.278 43.0484ZM137.094 40.522C134.646 40.522 133.462 39.1799 133.462 36.4167C133.462 33.7324 134.331 31.364 136.067 29.3903C137.804 27.4165 139.857 26.3902 142.146 26.3902C143.252 26.3902 144.436 26.706 145.699 27.2586L144.041 33.1798C142.778 38.0746 140.41 40.522 137.094 40.522Z" fill="#E86E58"></path><path d="M265.385 30.4148C265.227 30.3358 265.069 30.2569 264.911 30.178C264.121 29.5464 264.042 28.52 264.595 27.7305L269.648 21.3357C270.279 20.5462 271.306 20.4673 272.095 21.0199C272.885 21.6515 272.964 22.6778 272.411 23.4673L267.358 29.8622C266.885 30.4937 266.095 30.7306 265.385 30.4148Z" fill="#6ECFC3"></path><path d="M249.989 24.4161C249.436 24.1792 248.963 23.7055 248.884 22.995L248.015 16.2843C247.857 15.3369 248.568 14.4685 249.515 14.3106C250.463 14.1527 251.331 14.8632 251.489 15.8106L252.357 22.5213C252.515 23.4687 251.805 24.3371 250.857 24.495C250.542 24.5739 250.226 24.495 249.989 24.4161Z" fill="#6ECFC3"></path><path d="M275.568 44.4686C274.936 44.2317 274.542 43.6791 274.463 43.0475C274.384 42.1001 275.015 41.2317 276.042 41.1527L282.91 40.4422C283.858 40.3632 284.726 40.9948 284.805 42.0212C284.884 42.9685 284.252 43.837 283.226 43.9159L276.357 44.6265C276.121 44.6265 275.805 44.5475 275.568 44.4686Z" fill="#6ECFC3"></path><defs><radialGradient id="pdlm_paint0_radial" cx="0" cy="0" r="1" gradientUnits="userSpaceOnUse" gradientTransform="translate(67.8162 107.103) scale(23.2884)"><stop stop-color="#55B8AB"></stop><stop offset="1" stop-color="#6ECFC3"></stop></radialGradient><radialGradient id="pdlm_paint1_radial" cx="0" cy="0" r="1" gradientUnits="userSpaceOnUse" gradientTransform="translate(27.5192 128.827) scale(42.806 48.3521)"><stop stop-color="#55B8AB"></stop><stop offset="1" stop-color="#6ECFC3"></stop></radialGradient><radialGradient id="pdlm_paint2_radial" cx="0" cy="0" r="1" gradientUnits="userSpaceOnUse" gradientTransform="translate(64.6025 51.6326) scale(15.5414)"><stop stop-color="#A64E15" stop-opacity="0.8471"></stop><stop offset="0.1562" stop-color="#BA713F" stop-opacity="0.871"></stop><stop offset="0.3525" stop-color="#D1976C" stop-opacity="0.901"></stop><stop offset="0.5408" stop-color="#E2B690" stop-opacity="0.9298"></stop><stop offset="0.7164" stop-color="#EFCBAA" stop-opacity="0.9566"></stop><stop offset="0.8745" stop-color="#F6D8BA" stop-opacity="0.9808"></stop><stop offset="1" stop-color="#F9DDBF"></stop></radialGradient><radialGradient id="pdlm_paint3_radial" cx="0" cy="0" r="1" gradientUnits="userSpaceOnUse" gradientTransform="translate(60.9492 45.5833) rotate(180) scale(5.71179 5.66495)"><stop stop-color="#A86332" stop-opacity="0.8471"></stop><stop offset="1" stop-color="#F9DDBF" stop-opacity="0"></stop></radialGradient><linearGradient id="pdlm_paint4_linear" x1="57.4347" y1="23.5081" x2="65.7049" y2="23.5081" gradientUnits="userSpaceOnUse"><stop offset="0.00784317" stop-color="#B08058"></stop><stop offset="1" stop-color="#BF8F68"></stop></linearGradient><radialGradient id="pdlm_paint5_radial" cx="0" cy="0" r="1" gradientUnits="userSpaceOnUse" gradientTransform="translate(145.913 35.1655) scale(59.2955)"><stop stop-color="#77C9C1"></stop><stop offset="0.709" stop-color="#BBE5E0"></stop></radialGradient><radialGradient id="pdlm_paint6_radial" cx="0" cy="0" r="1" gradientUnits="userSpaceOnUse" gradientTransform="translate(199.823 139.835) scale(36.0454)"><stop stop-color="#E9B93B"></stop><stop offset="1" stop-color="#FFD360"></stop></radialGradient><radialGradient id="pdlm_paint7_radial" cx="0" cy="0" r="1" gradientUnits="userSpaceOnUse" gradientTransform="translate(265.992 145.748) scale(49.318)"><stop stop-color="#D6A21A"></stop><stop offset="1" stop-color="#FED25F"></stop></radialGradient><radialGradient id="pdlm_paint8_radial" cx="0" cy="0" r="1" gradientUnits="userSpaceOnUse" gradientTransform="translate(211.95 77.7403) scale(14.264)"><stop offset="0.00784317" stop-color="#9F7757"></stop><stop offset="1" stop-color="#BE906B"></stop></radialGradient><linearGradient id="pdlm_paint9_linear" x1="198.323" y1="64.8231" x2="204.551" y2="64.8231" gradientUnits="userSpaceOnUse"><stop stop-color="#BE906B"></stop><stop offset="0.9922" stop-color="#9F7757"></stop></linearGradient><radialGradient id="pdlm_paint10_radial" cx="0" cy="0" r="1" gradientUnits="userSpaceOnUse" gradientTransform="translate(213.362 65.5196) rotate(-179.915) scale(7.62811 5.64175)"><stop stop-color="#744D2C"></stop><stop offset="1" stop-color="#BE906B" stop-opacity="0"></stop></radialGradient></defs></svg>